# xmcd CD database file
#
# Track frame offsets:
#	150
#	31664
#	64201
#	83096
#	114034
#	129079
#	172473
#	221672
#	243053
#	288364
#
# Disc length: 4138 seconds
#
# Revision: 1
# Processed by: cddbd v1.5.2PL0 Copyright (c) Steve Scherf et al.
# Submitted via: CDex 1.81
#
DISCID=8010280a
DTITLE=Roger Cicero - Jazz Experience
DYEAR=2016
DGENRE=Jazz
TTITLE0=roger cicero - 01 No moon at all
TTITLE1=roger cicero - 02 Shower the people
TTITLE2=roger cicero - 03 Moody's mood
TTITLE3=roger cicero - 04 50 ways to leave your lover
TTITLE4=roger cicero - 05 Keep it loose keep it tight
TTITLE5=roger cicero - 06 From the morning
TTITLE6=roger cicero - 7 Moondance
TTITLE7=roger cicero - 8 The long and winding road
TTITLE8=roger cicero - 9 Boogie on reggae woman
TTITLE9=roger cicero - 10 Benny's from heaven
EXTD=YEAR: 2016
EXTT0=
EXTT1=
EXTT2=
EXTT3=
EXTT4=
EXTT5=
EXTT6=
EXTT7=
EXTT8=
EXTT9=
PLAYORDER=
